<?xml version="1.0" encoding="utf-8"?>
<!-- Generator: Adobe Illustrator 19.0.0, SVG Export Plug-In . SVG Version: 6.00 Build 0)  -->
<svg version="1.1" id="Layer_1" xmlns="http://www.w3.org/2000/svg" xmlns:xlink="http://www.w3.org/1999/xlink" x="0px" y="0px"
	 viewBox="0 0 1216.4 577.6" style="enable-background:new 0 0 1216.4 577.6;" xml:space="preserve">
<style type="text/css">




	.st0{fill:#5ECCDB;}
	.st1{fill:#F1F1F1;}
	.st2{fill:#C7E1E1;}
	.st3{fill:none;}
	.st4{fill:#F7931E;}
	.st5{fill:#C1272D;}
	.st6{fill:#4E97A8;}
	.st7{fill:#BFDBE2;}
	.st8{fill:#C49A6C;}
	.st9{fill:#FFFFFF;}
	.st10{fill:#A97C50;}
	.st11{fill:#BE1E2D;}
	.st12{fill:#FBB040;}
</style>
<rect id="XMLID_2_" x="-9.3" class="st0" width="1232.6" height="584"/>
<path id="XMLID_227_" class="st1" d="M1223.1,111.3c-11.6-0.6-21.4-5.4-30-13c-5-9.4-10.1-18.7-9.3-30c0.4-4.5-3.1-5.2-6.6-5.1
	c-5.4,0.2-10.5-1-15.4-3.4c-11.7-5.8-18.4-15.2-21.4-27.8c-0.7-2.9,0.1-8.7-5.5-7.2c-9.7,2.5-18.1-0.6-26.6-4.3
	c-3.6-1.6-6.3-1.4-6.3,3.7c0,14.5-7.7,23.7-20.4,29.3c-3.2,1.4-5,3.3-4.5,6.7c2.2,13.9-3.7,25.3-11.1,36.3
	c-7.7,4.9-14.9,10.9-24.2,12.4c-10.7,1.7-21.3,1.4-30.8-4.9c-4.4-2.9-7.2-2-11.4,1.4c-7.5,6-8.5,11.7-5.8,20.9
	c6.8,23.3-5.1,45.5-28,55.7c-19.9,8.8-46.7,1.5-57.3-18.4c-6.3-11.9-13.6-15.2-25.5-13c-1.5-1.8-3.7-1.6-5.7-2.1
	c-13.4-3.3-23.8-12.2-27-24.6c-3.1-12.2-7.7-19.1-19.9-22.7c-5.3-1.5-8.5-2.3-12.5,1.5c-17.5,16.6-53.5,10-61.1-18.9
	c-1.4-5.2-4.1-6.5-8.8-6.5c-6.5,0.1-12.7-1.1-18.6-4.6c-17.8-10.8-25.6-33.2-14.4-53.2c1.4-2.5,3.4-5.2,0.3-8
	C709.1,6,703.9-2.1,693.1,0.8c-2.4,0.6-5.4,0.4-7.5-1.7c176.8,0,353.6,0,530.5-0.2c6.1,0,7.4,1.2,7.3,7.3
	C1222.9,41.2,1223.1,76.3,1223.1,111.3z"/>
<path id="XMLID_223_" class="st2" d="M685.6-0.9c2.2,2.1,5.1,2.3,7.5,1.7c10.8-2.9,16,5.2,22.5,10.9c3.2,2.8,1.1,5.5-0.3,8
	c-11.2,19.9-3.5,42.4,14.4,53.2c5.9,3.6,12,4.7,18.6,4.6c4.8-0.1,7.5,1.3,8.8,6.5c7.6,28.9,43.5,35.5,61.1,18.9
	c4-3.8,7.2-3,12.5-1.5c12.2,3.5,16.8,10.5,19.9,22.7c3.2,12.3,13.5,21.3,27,24.6c2,0.5,4.2,0.3,5.7,2.1c-10.5,2.8-19.1-1.1-26.4-8.1
	c-3.5-3.3-6.2-4.4-10.7-1.6c-6.6,4.1-14.2,5.8-22,5.9c-3.6,0-5.9,0.7-6.8,5.1c-4.6,23.6-18.3,33.8-43.3,32.6
	c-3.5-0.2-5.3,1.5-7.1,4.2c-21.1,30.7-63.2,28.7-82.6-3.1c-6.9-11.2-7-34.8,0.4-45.8c1.1-1.7,2.4-3.4,3.3-5.2
	c1.4-2.9,1.7-5.8-1.7-7.6c-3.3-1.7-5.6-0.3-7.5,2.5c-10.1,15.9-37.1,19.1-56.9,15.5c-17.8-9.7-26.4-24.6-24.7-44.8
	c0.3-3.7-0.7-4.9-4-4.8c6.4-8.7,9.4-18.1,7.5-29c-0.7-4-2.6-8.9,4.5-10.4c14.3-3,23.5-12.2,28-25.7c1.9-5.6,4.3-6.4,9.7-5.5
	c17,3,35.3-9.3,39.2-25.6C683.2-0.9,684.4-0.9,685.6-0.9z"/>
<path id="XMLID_222_" class="st1" d="M682-0.9c-3.9,16.4-22.2,28.6-39.2,25.6c-5.4-0.9-7.8-0.2-9.7,5.5c-4.5,13.5-13.7,22.7-28,25.7
	c-7,1.5-5.2,6.4-4.5,10.4c1.9,10.9-1.1,20.4-7.5,29c-17,22.7-44.8,21-64.1-3.8c-1.1-8.1-7.9-8-13.5-8.6
	c-20.4-2.3-34.1-16.4-34.6-36.5c-0.1-4.4-0.6-7.9-5.3-10.1c-4.5-2.1-7.9-1-11.4,1.6c-9.4,6.9-19.6,9-30.9,5.7c-3.6-1-7.5-1.4-11.2-2
	c0-11.8,0.4-23.7-0.2-35.5c-0.3-5.8,0.8-7.4,7.1-7.4C513.4-0.8,597.7-0.9,682-0.9z"/>
<path id="XMLID_214_" class="st2" d="M1066.2,96.5c7.4-10.9,13.3-22.3,11.1-36.3c-0.5-3.4,1.3-5.3,4.5-6.7
	c12.7-5.6,20.4-14.8,20.4-29.3c0-5.1,2.7-5.3,6.3-3.7c8.5,3.6,16.9,6.8,26.6,4.3c5.5-1.4,4.8,4.4,5.5,7.2c3,12.6,9.7,21.9,21.4,27.8
	c4.9,2.5,10,3.6,15.4,3.4c3.6-0.1,7,0.5,6.6,5.1c-0.9,11.3,4.2,20.6,9.3,30c-3.6,4.6-6.7,9.6-10.8,14c-7.4,8-16.5,11.2-26.9,11.3
	c-4.5,0-7.2,1.6-9,5.6c-9.5,22.3-46.7,32.4-66.8,4.6c-6-8.3-7.4-18.4-5.5-28.1C1075.7,97.8,1072.5,96.4,1066.2,96.5z"/>
<path id="XMLID_212_" class="st1" d="M1072,143.3c0,3.9-2,6.6-5.4,8c-3.7,1.6-7.3,0.9-10.3-1.7c-2.5-2.2-3.8-5.1-2.7-8.6
	c0.4-1.2,0.8-2.3,1.4-3.4c2.5-4.8,2.8-11.1,8.3-13.9C1064.7,123,1072.1,139.5,1072,143.3z"/>
<path id="XMLID_211_" class="st1" d="M1091.2,222.6c-0.1,5.2-4.3,9.4-9.5,9.3c-5.3-0.1-9.7-5.1-9.2-10.4c0.4-4.2,8.3-18.4,10.1-18
	C1084.3,203.8,1091.3,219.4,1091.2,222.6z"/>
<path id="XMLID_210_" class="st1" d="M761.7,204.5c4.5,6.1,7.3,12.3,9.2,18.8c1.2,3.9-0.7,6.8-3.8,8.9c-3.3,2.2-7.1,2.3-10.5,0.2
	c-3.4-2.1-5.1-5.4-3.9-9.5C754.8,216.5,757.7,210.6,761.7,204.5z"/>
<path id="XMLID_209_" class="st1" d="M812,168.4c-6.6-0.1-11-5.6-8.7-12c1.8-5,4.5-9.8,6.8-14.6c1.4-2.9,3-2.3,4.1,0
	c2.5,5.3,5.3,10.5,7,16.1C822.7,163.5,817.9,168.5,812,168.4z"/>
<path id="XMLID_207_" class="st1" d="M949.3,124.7c0.5,0.1,0.7,0.2,0.9,0.3c4.7,1.7,9.8,20.7,6.4,24.5c-2.4,2.7-5.3,4.4-9.2,3
	c-4.1-1.4-7-3.9-7-8.5c0-7,4.9-12.2,7.2-18.4C947.8,125.2,948.8,125,949.3,124.7z"/>
<path id="XMLID_206_" class="st1" d="M1006.9,169.8c3.1,6.5,5.8,11.4,7.9,16.6c1.9,4.6,2,9.2-2.5,12.6c-3.5,2.7-7.3,2.7-10.8,0
	c-4.4-3.5-4.2-8.1-2.4-12.7C1001.3,181.1,1003.9,176.2,1006.9,169.8z"/>
<path id="XMLID_205_" class="st1" d="M868.4,178.4c3.4,7,6.1,12.4,8.6,18c2.1,4.5,0.4,8.1-3.3,11c-3.4,2.6-6.8,2.5-10.2,0.1
	c-3.5-2.5-5.6-5.9-3.8-10.2C862.1,191.3,865,185.5,868.4,178.4z"/>
<path id="XMLID_203_" class="st1" d="M690,182.7c3.3,7,6.1,12.2,8.1,17.7c1.6,4.3,1.5,8.7-3,11.8c-3.9,2.7-7.7,1.7-10.9-0.7
	c-4-2.9-3.8-7.3-2.3-11.4C684.1,194.8,686.8,189.6,690,182.7z"/>
<path id="XMLID_11_" class="st1" d="M344.1,216.2c3.1,6.5,5.8,11.4,7.9,16.6c1.9,4.6,2,9.2-2.5,12.6c-3.5,2.7-7.3,2.7-10.8,0
	c-4.4-3.5-4.2-8.1-2.4-12.7C338.5,227.6,341.1,222.6,344.1,216.2z"/>
<path id="XMLID_18_" class="st1" d="M367.7,428.4c3.4,7,6.1,12.4,8.6,18c2.1,4.5,0.4,8.1-3.3,11c-3.4,2.6-6.8,2.5-10.2,0.1
	c-3.5-2.5-5.6-5.9-3.8-10.2C361.4,441.3,364.4,435.5,367.7,428.4z"/>
<path id="XMLID_12_" class="st1" d="M445,466.1c3.4,7,6.1,12.4,8.6,18c2.1,4.5,0.4,8.1-3.3,11c-3.4,2.6-6.8,2.5-10.2,0.1
	c-3.5-2.5-5.6-5.9-3.8-10.2C438.7,479,441.6,473.2,445,466.1z"/>
<path id="XMLID_9_" class="st1" d="M445.2,240.6c3.5,7.3,6.2,12.8,8.7,18.4c2.1,4.6-0.1,8.1-3.5,11c-3.3,2.8-7.1,2.4-10.3,0.2
	c-3.6-2.4-4.9-6.4-3.4-10.4C438.8,253.9,441.8,248.2,445.2,240.6z"/>
<path id="XMLID_5_" class="st1" d="M136.8,157.9c3.3,7,6.1,12.2,8.1,17.7c1.6,4.3,1.5,8.7-3,11.8c-3.9,2.7-7.7,1.7-10.9-0.7
	c-4-2.9-3.8-7.3-2.3-11.4C130.8,170,133.6,164.9,136.8,157.9z"/>
<path id="XMLID_200_" class="st1" d="M436,142.3c3.4,7.6,6.2,13,8.2,18.6c1.4,3.8,1.1,8-2.7,10.6c-3.5,2.4-7.6,2.8-11.1,0.3
	c-3.5-2.5-4.3-6.7-2.8-10.7C429.8,155.5,432.6,150.1,436,142.3z"/>
<path id="XMLID_31_" class="st1" d="M976.5,278.9c-0.1,5.2-4.3,9.4-9.5,9.3c-5.3-0.1-9.7-5.1-9.2-10.4c0.4-4.2,8.3-18.4,10.1-18
	C969.5,260.1,976.5,275.7,976.5,278.9z"/>
<path id="XMLID_29_" class="st1" d="M713.4,259.2c4.5,6.1,7.3,12.3,9.2,18.8c1.2,3.9-0.7,6.8-3.8,8.9c-3.3,2.2-7.1,2.3-10.5,0.2
	c-3.4-2.1-5.1-5.4-3.9-9.5C706.4,271.2,709.3,265.3,713.4,259.2z"/>
<path id="XMLID_32_" class="st1" d="M641.5,256.3c4.5,6.1,7.3,12.3,9.2,18.8c1.2,3.9-0.7,6.8-3.8,8.9c-3.3,2.2-7.1,2.3-10.5,0.2
	c-3.4-2.1-5.1-5.4-3.9-9.5C634.6,268.3,637.4,262.4,641.5,256.3z"/>
<path id="XMLID_22_" class="st1" d="M266.8,208.4c3.4,7,6.1,12.4,8.6,18c2.1,4.5,0.4,8.1-3.3,11c-3.4,2.6-6.8,2.5-10.2,0.1
	c-3.5-2.5-5.6-5.9-3.8-10.2C260.5,221.3,263.5,215.5,266.8,208.4z"/>
<path id="XMLID_20_" class="st1" d="M108.8,240.7c3.3,7,6.1,12.2,8.1,17.7c1.6,4.3,1.5,8.7-3,11.8c-3.9,2.7-7.7,1.7-10.9-0.7
	c-4-2.9-3.8-7.3-2.3-11.4C102.8,252.8,105.5,247.6,108.8,240.7z"/>
<path id="XMLID_178_" class="st1" d="M672.2,85.7c-0.1,6.5-5.1,10.6-10.6,10c-5.3-0.6-8.8-5.2-7.6-10.5c1.3-5.8,4.7-10.8,7.3-16.1
	c0.9-1.8,2.7-3.1,3.6-0.5C667.2,74.8,671.5,80.2,672.2,85.7z"/>
<path id="XMLID_177_" class="st1" d="M727.1,141.2c-0.3,5.4-2.7,8.8-7.9,9.4c-5.4,0.6-9-2.1-9.8-7.6c-1-7.1,3.9-12.3,6.3-18.3
	c0.7-1.8,3-2,4,0.1C722.5,130.1,726.1,135.2,727.1,141.2z"/>
<path id="XMLID_176_" class="st1" d="M1029.3,85.5c-0.5,5.1-3,8.4-8.2,8.7c-5.6,0.4-9.1-2.6-9.5-8.1c-0.6-7.3,4.8-12.7,7.1-19.1
	c0.6-1.8,2.4-1.8,3.3,0C1025.1,72.9,1028.6,78.7,1029.3,85.5z"/>
<g id="XMLID_1_">
	<path id="XMLID_6_" class="st2" d="M130-1c2,12,10.3,19.2,23,24c3.6,1.4,5.7,3.3,5.1,6.7c-2.5,13.9,4.2,25.3,12.7,36.3
		c8.8,4.9,17.1,10.9,27.8,12.4c12.3,1.7,24.5,1.4,35.4-4.9c5.1-2.9,8.3-2,13.1,1.4c8.7,6,9.8,11.7,6.7,20.9
		c-7.8,23.3,5.9,45.5,32.2,55.7c22.8,8.8,53.6,1.5,65.7-18.4c7.3-11.9,15.6-15.2,29.3-13c1.7-1.8,4.2-1.6,6.5-2.1
		c15.4-3.3,27.3-12.2,30.9-24.6c3.6-12.2,8.8-19.1,22.9-22.7c6-1.5,9.7-2.3,14.3,1.5c20.1,16.6,61.4,10,70.1-18.9
		c1.6-5.2,4.7-6.5,10.1-6.5c7.5,0.1,14.6-1.1,21.3-4.7c17.1-9,26.1-26.2,21.1-43.2H130z"/>
	<path id="XMLID_7_" class="st2" d="M-9.3-1c0.1,27,0,54.5,0,81.7C4,80.1,15.3,75.4,25.1,67.8c5.8-9.4,11.6-18.7,10.6-30
		c-0.4-4.5,3.5-5.2,7.6-5.1c6.2,0.2,12-1,17.7-3.4c13.4-5.8,21.1-15.3,24.5-27.8C85.8,0.8,85.8,0,86-1H-9.3z"/>
</g>
<g id="XMLID_4_">
	<path id="XMLID_8_" class="st1" d="M-6.5-1c2.5,8,7.9,13.3,15.2,17.3c5,2.8,10.3,3.7,15.9,3.7c4.1-0.1,6.4,1,7.6,5.1
		c6.5,22.7,37.3,27.8,52.4,14.8c3.4-3,6.2-2.4,10.7-1.2c10.5,2.8,14.4,8.2,17.1,17.8c2.7,9.7,11.6,16.7,23.1,19.2
		c1.7,0.4,3.6,0.2,4.9,1.6c10.2-1.7,16.4,0.9,21.9,10.2c9.1,15.6,32,21.3,49.1,14.4c19.6-7.9,29.8-25.4,24-43.6
		c-2.3-7.3-1.5-11.7,5-16.4c3.6-2.6,6-3.4,9.8-1.1c8.1,5,17.2,5.2,26.4,3.9c8-1.2,14.2-5.9,20.8-9.7c6.4-8.6,11.4-17.5,9.5-28.4
		c-0.5-2.7,1.1-4.2,3.8-5.3c1.7-0.7,3.2-1.3,4.7-2.3H-6.5z"/>
</g>
<path id="XMLID_17_" class="st1" d="M219,98.5c4.5,6.1,7.3,12.3,9.2,18.8c1.2,3.9-0.7,6.8-3.8,8.9c-3.3,2.2-7.1,2.3-10.5,0.2
	c-3.4-2.1-5.1-5.4-3.9-9.5C212.1,110.5,215,104.6,219,98.5z"/>
<path id="XMLID_16_" class="st1" d="M453.5,61.9c3.8,7.8,7,13.7,9.5,19.9c2.3,5.5,2.3,11.1-2.9,15.2c-4.2,3.3-8.8,3.3-13,0
	c-5.3-4.2-5.1-9.7-2.9-15.2C446.8,75.6,449.9,69.6,453.5,61.9z"/>
<path id="XMLID_15_" class="st1" d="M325.7,72.4c3.4,7,6.1,12.4,8.6,18c2.1,4.5,0.4,8.1-3.3,11c-3.4,2.6-6.8,2.5-10.2,0.1
	c-3.5-2.5-5.6-5.9-3.8-10.2C319.4,85.3,322.3,79.5,325.7,72.4z"/>
<path id="XMLID_13_" class="st1" d="M147.3,76.7c3.3,7,6.1,12.2,8.1,17.7c1.6,4.3,1.5,8.7-3,11.8c-3.9,2.7-7.7,1.7-10.9-0.7
	c-4-2.9-3.8-7.3-2.3-11.4C141.3,88.8,144.1,83.6,147.3,76.7z"/>
<path id="XMLID_38_" class="st3" d="M852.3,364c-1.7-1.5-3.4-2.9-5.1-4.4L852.3,364C852.2,364,852.2,364,852.3,364z"/>
<path id="XMLID_42_" class="st3" d="M854.8,366.1c0,0-0.1,0.1-0.1,0.1l6.3,5.6C858.9,369.9,856.8,368.1,854.8,366.1z"/>
<path id="XMLID_47_" class="st4" d="M833.7,385.3c1-1,1.8-2.1,2.7-3.2c-2,2.1-4,4.2-6,6.3C831.5,387.4,832.6,386.4,833.7,385.3z"/>
<path id="XMLID_48_" class="st4" d="M841.5,377.1c0.4-0.4,0.6-0.9,0.9-1.5c-1.6,1.8-3.3,3.6-4.9,5.4
	C838.8,379.7,840.2,378.4,841.5,377.1z"/>
<path id="XMLID_49_" class="st4" d="M845.4,372.9c2.5-2.5,4.8-5.1,7.3-7.7c-0.1-0.1-0.2-0.2-0.3-0.3c-3.1,3.4-6.3,6.8-9.4,10.2
	C843.8,374.3,844.6,373.7,845.4,372.9z"/>
<path id="XMLID_50_" class="st4" d="M827.5,391.8c0.7-0.7,1.3-1.6,1.9-2.4c-2.7,2.7-5.4,5.4-8.1,8.1
	C823.4,395.6,825.5,393.7,827.5,391.8z"/>
<polygon id="XMLID_52_" class="st4" points="861,371.8 861,371.8 861,371.8 "/>
<polygon id="XMLID_53_" class="st4" points="847.2,359.6 847.2,359.6 847.2,359.6 "/>
<path id="XMLID_54_" class="st4" d="M842.4,375.6c0.1-0.1,0.1-0.1,0.2-0.2c0.1-0.1,0.2-0.3,0.3-0.4c-0.1,0.1-0.3,0.2-0.4,0.3
	C842.5,375.4,842.4,375.5,842.4,375.6z"/>
<path id="XMLID_55_" class="st4" d="M836.4,382.1c0.2-0.2,0.4-0.4,0.5-0.6c0.2-0.2,0.4-0.4,0.6-0.6c-0.2,0.2-0.4,0.4-0.6,0.6
	C836.7,381.7,836.5,381.9,836.4,382.1z"/>
<path id="XMLID_59_" class="st4" d="M829.4,389.4c0.1-0.1,0.2-0.2,0.3-0.3c0.2-0.2,0.4-0.4,0.6-0.6c-0.2,0.2-0.4,0.4-0.6,0.6
	C829.6,389.2,829.5,389.3,829.4,389.4z"/>
<g id="XMLID_3_">
	<path id="XMLID_43_" class="st4" d="M890.9,363.2c-4.8-6.7-9.8-13.2-14.7-19.8c-8.5-11.6-17.1-23.1-26.9-33.7
		c-14.1-15.2-29.3-29.2-48.1-38.5c-14.1-7-28.5-13.3-42.9-19.8c-6.8-3.1-13.7-6.1-20.6-9.3c-2.3-1.1-3.4-2.2-3.7-4l-5.2-1.3
		c-1,1.2-2.4,1.7-4.7,1.9c-12.1,1-24.2,0.1-36.2-0.2c-17.9-0.3-35.9-0.9-53.6,2.9c-9.8,2.2-19.4,5.1-28.6,9
		c-17.2,7.3-32.9,17-48.4,27.4c-7.3,4.9-14.6,9.6-21.9,14.4c-0.4,0.2-0.6,0.7-0.9,1.1c-0.8,1.2-1.6,2.4-2.4,3.6
		c0.4-0.6,1.2-1.2,2-1.5c1.1-0.5,2.3-1.2,3.3-1.1c3.1,0.3,6.1,1,9.1,1.6c16.3,2.9,31.8,8.5,47.1,14.7c9.1,3.7,17.7,8.5,26,13.9
		c0.3,0.2,0.8,0.1,1.2,0.1c0.8,0,1.5-0.2,2.3-0.1c3.6,0.5,7.2,1.3,10.8,1.7c20.9,2.1,41.6,5.5,62.2,9.5c1,0.2,1.9,0.4,2.9,0.6v0l0,0
		c2.6,0.5,5.2,1,7.9,1.5c0,0,0,0.1,0,0.1l3.9,0.8c0-0.1,0.1-0.2,0.1-0.2c3.3,0.8,6.4,2,9.9,2.1l0,0l0,0.1c7.5,1.7,15,3.4,22.3,5.3
		c13.1,3.6,26.1,7.7,39.2,11.6c1.8,0.5,3.8,0.7,4.5,3.1c0.1-0.7,0.3-1.4,0.4-2c6.2,0,12.2,0.1,18.2-0.1c27.9-0.9,55.5,0.2,82.8,7
		c2.6,0.7,4.2,2.3,5.7,4.2c0.2,0.3,0.4,0.5,0.6,0.8C893.3,367.8,892.4,365.2,890.9,363.2z"/>
	<path id="XMLID_45_" class="st5" d="M706.9,337.6c-1,4.5-2,8.6-3,12.7c-7.2,29-14.3,58-21.5,87c-0.1,0.6-0.5,1.6-0.8,1.6
		c-2.2,0.2-2.1,2-2.5,3.5c-2.9,11-5.6,22.1-8.5,33.1c-1.8,6.8-5.7,9.7-12.7,9.9c-7.2,0.2-15-7.9-11.5-15.8c1.5-3.3,3.9-6.3,6-9.3
		c1.8-2.5,1.8-3-0.8-4.6c-0.8-0.5-1.8-1-2.8-1.1c-0.8-0.1-2,0.2-2.4,0.8c-2.4,3.2-5,6.4-6.7,9.9c-3.5,7.1-2.8,14.1,2.1,20.4
		c6.4,8.3,17.6,10.4,26.6,5.1c5.3-3,8.3-7.8,9.8-13.6c3-11.1,5.7-22.3,8.6-33.5c0.3-1.2,1-2.5-0.6-3.4c-0.2-0.1-0.2-0.9-0.1-1.4
		c1-4.1,2.1-8.3,3.1-12.4c6.4-25.9,12.8-51.8,19.1-77.7c0.8-3.4,1.6-6.8,2.5-10.4L706.9,337.6z M705.1,350.9
		c-0.3,1.3-0.8,2.5-1.3,3.7c0,0.2-0.1,0.4-0.1,0.6c0,0.1,0,0.2-0.1,0.3c0,0.7,0.1,1.4-0.1,2c-0.6,2.2-1.2,4.3-1.9,6.5
		c-0.1,0.3-0.1,0.6-0.2,1c-0.1,0.3-0.1,0.6-0.2,0.9c-0.3,1.6-0.5,3.3-0.9,4.9c-0.4,1.8-1,3.5-1.6,5.3c-0.1,0.3-0.2,0.7-0.2,1
		c0,0.2-0.1,0.3-0.1,0.5c-0.2,1.2-0.3,2.5-0.6,3.6c-0.9,3.2-2,6.4-3,9.6c1.2-4.4,2.4-8.8,3.6-13.3c0-0.2,0-0.3,0.1-0.5
		c0.1-0.3,0.2-0.7,0.3-1c0.8-3.4,1.7-6.8,2.5-10.2c0.1-0.3,0.1-0.6,0.2-0.9c0.1-0.3,0.2-0.6,0.3-0.9c0.6-2.9,1.3-5.7,1.9-8.6
		c0-0.1,0-0.2,0-0.3c0.1-0.2,0.1-0.4,0.2-0.6c1.2-5.4,2.4-10.8,3.7-16.2c0.2,0,0.4,0.1,0.6,0.1C707.1,342.6,706.1,346.8,705.1,350.9
		z"/>
	<path id="XMLID_41_" class="st5" d="M740.3,207c0.2-0.8,0.1-1.7,0.1-2.5c0.4-4.9-1.3-3.4-1.9-3.5c-1-0.1-4.5,16.1-4.5,16.1l0,0.2
		c-0.9,3.9-1.9,7.8-2.8,11.7l-0.3,0.8c0,0,0,0,0,0c0,1-0.3,2.1-0.5,3.1c-0.4,1.7-0.8,2.9-1.5,3.8l5.2,1.3c-0.1-0.8-0.1-1.7,0.1-2.8
		c0.1-1.1,0.3-2.1,0.6-3.2c0.8-3.6,1.6-7.2,2.4-10.8c1.1-4.5,1.9-8,2.4-10.7C739.8,209.3,740,208.1,740.3,207z"/>
</g>
<path id="XMLID_250_" class="st1" d="M739.6,262.2c4.5,6.1,7.3,12.3,9.2,18.8c1.2,3.9-0.7,6.8-3.8,8.9c-3.3,2.2-7.1,2.3-10.5,0.2
	c-3.4-2.1-5.1-5.4-3.9-9.5C732.7,274.2,735.6,268.3,739.6,262.2z"/>
<path id="XMLID_249_" class="st1" d="M651,247.5c4.5,6.1,7.3,12.3,9.2,18.8c1.2,3.9-0.7,6.8-3.8,8.9c-3.3,2.2-7.1,2.3-10.5,0.2
	c-3.4-2.1-5.1-5.4-3.9-9.5C644,259.5,646.9,253.6,651,247.5z"/>
<path id="XMLID_81_" class="st1" d="M807.4,289.1c3.4,7,6.1,12.4,8.6,18c2.1,4.5,0.4,8.1-3.3,11c-3.4,2.6-6.8,2.5-10.2,0.1
	c-3.5-2.5-5.6-5.9-3.8-10.2C801.1,302,804,296.2,807.4,289.1z"/>
<path id="XMLID_78_" class="st1" d="M147.5,320.7c4.5,6.1,7.3,12.3,9.2,18.8c1.2,3.9-0.7,6.8-3.8,8.9c-3.3,2.2-7.1,2.3-10.5,0.2
	c-3.4-2.1-5.1-5.4-3.9-9.5C140.6,332.7,143.4,326.8,147.5,320.7z"/>
<path id="XMLID_74_" class="st1" d="M464.3,357.4c3.4,7.6,6.2,13,8.2,18.6c1.4,3.8,1.1,8-2.7,10.6c-3.5,2.4-7.6,2.8-11.1,0.3
	c-3.5-2.5-4.3-6.7-2.8-10.7C458.1,370.6,460.8,365.2,464.3,357.4z"/>
<path id="XMLID_72_" class="st1" d="M919.5,376.8c-0.1,5.2-4.3,9.4-9.5,9.3c-5.3-0.1-9.7-5.1-9.2-10.4c0.4-4.2,8.3-18.4,10.1-18
	C912.5,358,919.5,373.6,919.5,376.8z"/>
<path id="XMLID_68_" class="st1" d="M376.9,333.2c3.3,7.3,6,12.6,8.1,18c1.6,4.4,1.5,8.8-3,11.8c-3.5,2.3-6.9,2.3-10.3-0.1
	c-4.4-3.1-4.5-7.5-2.8-11.9C370.9,345.7,373.6,340.5,376.9,333.2z"/>
<path id="XMLID_65_" class="st1" d="M285.3,361.6c3.1,6.5,5.8,11.4,7.9,16.6c1.9,4.6,2,9.2-2.5,12.6c-3.5,2.7-7.3,2.7-10.8,0
	c-4.4-3.5-4.2-8.1-2.4-12.7C279.7,372.9,282.2,368,285.3,361.6z"/>
<path id="XMLID_86_" class="st1" d="M1087.1,324.6c3.3,7,6.1,12.2,8.1,17.7c1.6,4.3,1.5,8.7-3,11.8c-3.9,2.7-7.7,1.7-10.9-0.7
	c-4-2.9-3.8-7.3-2.3-11.4C1081.1,336.7,1083.9,331.5,1087.1,324.6z"/>
<path id="XMLID_21_" class="st1" d="M1062.7,425.1c3.3,7,6.1,12.2,8.1,17.7c1.6,4.3,1.5,8.7-3,11.8c-3.9,2.7-7.7,1.7-10.9-0.7
	c-4-2.9-3.8-7.3-2.3-11.4C1056.7,437.2,1059.5,432.1,1062.7,425.1z"/>
<path id="XMLID_110_" class="st1" d="M976.5,425.1c3.3,7,6.1,12.2,8.1,17.7c1.6,4.3,1.5,8.7-3,11.8c-3.9,2.7-7.7,1.7-10.9-0.7
	c-4-2.9-3.8-7.3-2.3-11.4C970.5,437.2,973.3,432.1,976.5,425.1z"/>
<path id="XMLID_106_" class="st1" d="M1154.8,409.6c3.3,7,6.1,12.2,8.1,17.7c1.6,4.3,1.5,8.7-3,11.8c-3.9,2.7-7.7,1.7-10.9-0.7
	c-4-2.9-3.8-7.3-2.3-11.4C1148.8,421.6,1151.5,416.5,1154.8,409.6z"/>
<path id="XMLID_116_" class="st1" d="M1163.8,495.5c3.3,7,6.1,12.2,8.1,17.7c1.6,4.3,1.5,8.7-3,11.8c-3.9,2.7-7.7,1.7-10.9-0.7
	c-4-2.9-3.8-7.3-2.3-11.4C1157.9,507.5,1160.6,502.4,1163.8,495.5z"/>
<path id="XMLID_61_" class="st1" d="M99.2,375.5c4.5,6.1,7.3,12.3,9.2,18.8c1.2,3.9-0.7,6.8-3.8,8.9c-3.3,2.2-7.1,2.3-10.5,0.2
	c-3.4-2.1-5.1-5.4-3.9-9.5C92.2,387.5,95.1,381.6,99.2,375.5z"/>
<path id="XMLID_25_" class="st1" d="M880.6,256.5c3.5,7.3,6.2,12.8,8.7,18.4c2.1,4.6-0.1,8.1-3.5,11c-3.3,2.8-7.1,2.4-10.3,0.2
	c-3.6-2.4-4.9-6.4-3.4-10.4C874.2,269.8,877.2,264.1,880.6,256.5z"/>
<path id="XMLID_157_" class="st1" d="M1025.4,360.7c-0.1,5.2-4.3,9.4-9.5,9.3c-5.3-0.1-9.7-5.1-9.2-10.4c0.4-4.2,8.3-18.4,10.1-18
	C1018.4,341.9,1025.4,357.5,1025.4,360.7z"/>
<path id="XMLID_156_" class="st1" d="M1164.1,308.4c-0.1,5.2-4.3,9.4-9.5,9.3c-5.3-0.1-9.7-5.1-9.2-10.4c0.4-4.2,8.3-18.4,10.1-18
	C1157.1,289.6,1164.1,305.2,1164.1,308.4z"/>
<path id="XMLID_153_" class="st1" d="M262.8,474.6c4.5,6.1,7.3,12.3,9.2,18.8c1.2,3.9-0.7,6.8-3.8,8.9c-3.3,2.2-7.1,2.3-10.5,0.2
	c-3.4-2.1-5.1-5.4-3.9-9.5C255.9,486.7,258.7,480.7,262.8,474.6z"/>
<path id="XMLID_149_" class="st3" d="M852.3,564c-1.7-1.5-3.4-2.9-5.1-4.4L852.3,564C852.2,564,852.2,564,852.3,564z"/>
<path id="XMLID_148_" class="st3" d="M854.8,566.1c0,0-0.1,0.1-0.1,0.1l6.3,5.6C858.9,569.9,856.8,568.1,854.8,566.1z"/>
<path id="XMLID_147_" class="st4" d="M833.7,585.3c1-1,1.8-2.1,2.7-3.2c-2,2.1-4,4.2-6,6.3C831.5,587.4,832.6,586.4,833.7,585.3z"/>
<path id="XMLID_146_" class="st4" d="M841.5,577.1c0.4-0.4,0.6-0.9,0.9-1.5c-1.6,1.8-3.3,3.6-4.9,5.4
	C838.8,579.7,840.2,578.4,841.5,577.1z"/>
<path id="XMLID_145_" class="st4" d="M845.4,572.9c2.5-2.5,4.8-5.1,7.3-7.7c-0.1-0.1-0.2-0.2-0.3-0.3c-3.1,3.4-6.3,6.8-9.4,10.2
	C843.8,574.3,844.6,573.7,845.4,572.9z"/>
<path id="XMLID_144_" class="st4" d="M827.5,591.8c0.7-0.7,1.3-1.6,1.9-2.4c-2.7,2.7-5.4,5.4-8.1,8.1
	C823.4,595.6,825.5,593.7,827.5,591.8z"/>
<polygon id="XMLID_143_" class="st4" points="861,571.8 861,571.8 861,571.8 "/>
<polygon id="XMLID_142_" class="st4" points="847.2,559.6 847.2,559.6 847.2,559.6 "/>
<path id="XMLID_141_" class="st4" d="M842.4,575.6c0.1-0.1,0.1-0.1,0.2-0.2c0.1-0.1,0.2-0.3,0.3-0.4c-0.1,0.1-0.3,0.2-0.4,0.3
	C842.5,575.4,842.4,575.5,842.4,575.6z"/>
<path id="XMLID_140_" class="st4" d="M836.4,582.1c0.2-0.2,0.4-0.4,0.5-0.6c0.2-0.2,0.4-0.4,0.6-0.6c-0.2,0.2-0.4,0.4-0.6,0.6
	C836.7,581.7,836.5,581.9,836.4,582.1z"/>
<path id="XMLID_136_" class="st4" d="M829.4,589.4c0.1-0.1,0.2-0.2,0.3-0.3c0.2-0.2,0.4-0.4,0.6-0.6c-0.2,0.2-0.4,0.4-0.6,0.6
	C829.6,589.2,829.5,589.3,829.4,589.4z"/>
<path id="XMLID_134_" class="st1" d="M1030.2,563.6c-0.1,5.2-4.3,9.4-9.5,9.3c-5.3-0.1-9.7-5.1-9.2-10.4c0.4-4.2,8.3-18.4,10.1-18
	C1023.3,544.8,1030.3,560.4,1030.2,563.6z"/>
<path id="XMLID_123_" class="st1" d="M117.9,455.3c3.5,7.3,6.2,12.8,8.7,18.4c2.1,4.6-0.1,8.1-3.5,11c-3.3,2.8-7.1,2.4-10.3,0.2
	c-3.6-2.4-4.9-6.4-3.4-10.4C111.5,468.5,114.5,462.9,117.9,455.3z"/>
<path id="XMLID_103_" class="st1" d="M9.2,388.8c3.5,7.3,6.2,12.8,8.7,18.4c2.1,4.6-0.1,8.1-3.5,11C11,421,7.3,420.6,4,418.5
	C0.4,416-0.9,412,0.6,408C2.8,402.1,5.7,396.4,9.2,388.8z"/>
<path id="XMLID_102_" class="st1" d="M38.1,491.5c3.5,7.3,6.2,12.8,8.7,18.4c2.1,4.6-0.1,8.1-3.5,11c-3.3,2.8-7.1,2.4-10.3,0.2
	c-3.6-2.4-4.9-6.4-3.4-10.4C31.8,504.8,34.7,499.1,38.1,491.5z"/>
<path id="XMLID_119_" class="st1" d="M946,551.7c-0.1,5.2-4.3,9.4-9.5,9.3c-5.3-0.1-9.7-5.1-9.2-10.4c0.4-4.2,8.3-18.4,10.1-18
	C939,532.9,946,548.5,946,551.7z"/>
<path id="XMLID_115_" class="st1" d="M376.9,533.2c3.3,7.3,6,12.6,8.1,18c1.6,4.4,1.5,8.8-3,11.8c-3.5,2.3-6.9,2.3-10.3-0.1
	c-4.4-3.1-4.5-7.5-2.8-11.9C370.9,545.7,373.6,540.5,376.9,533.2z"/>
<path id="XMLID_114_" class="st1" d="M196.3,400.8c3.1,6.5,5.8,11.4,7.9,16.6c1.9,4.6,2,9.2-2.5,12.6c-3.5,2.7-7.3,2.7-10.8,0
	c-4.4-3.5-4.2-8.1-2.4-12.7C190.7,412.2,193.3,407.2,196.3,400.8z"/>
<path id="XMLID_85_" class="st1" d="M76.8,65.8c3.1,6.5,5.8,11.4,7.9,16.6c1.9,4.6,2,9.2-2.5,12.6c-3.5,2.7-7.3,2.7-10.8,0
	c-4.4-3.5-4.2-8.1-2.4-12.7C71.2,77.2,73.8,72.2,76.8,65.8z"/>
<path id="XMLID_87_" class="st1" d="M38.2,152.8c3.1,6.5,5.8,11.4,7.9,16.6c1.9,4.6,2,9.2-2.5,12.6c-3.5,2.7-7.3,2.7-10.8,0
	c-4.4-3.5-4.2-8.1-2.4-12.7C32.6,164.2,35.2,159.2,38.2,152.8z"/>
<path id="XMLID_88_" class="st1" d="M47.2,305.3c3.1,6.5,5.8,11.4,7.9,16.6c1.9,4.6,2,9.2-2.5,12.6c-3.5,2.7-7.3,2.7-10.8,0
	c-4.4-3.5-4.2-8.1-2.4-12.7C41.7,316.7,44.2,311.7,47.2,305.3z"/>
<path id="XMLID_113_" class="st1" d="M564.1,135c3.1,6.5,5.8,11.4,7.9,16.6c1.9,4.6,2,9.2-2.5,12.6c-3.5,2.7-7.3,2.7-10.8,0
	c-4.4-3.5-4.2-8.1-2.4-12.7C558.5,146.3,561.1,141.4,564.1,135z"/>
<path id="XMLID_112_" class="st1" d="M544,216.2c3.1,6.5,5.8,11.4,7.9,16.6c1.9,4.6,2,9.2-2.5,12.6c-3.5,2.7-7.3,2.7-10.8,0
	c-4.4-3.5-4.2-8.1-2.4-12.7C538.4,227.6,541,222.6,544,216.2z"/>
<path id="XMLID_107_" class="st1" d="M1087.1,524.6c3.3,7,6.1,12.2,8.1,17.7c1.6,4.3,1.5,8.7-3,11.8c-3.9,2.7-7.7,1.7-10.9-0.7
	c-4-2.9-3.8-7.3-2.3-11.4C1081.1,536.7,1083.9,531.5,1087.1,524.6z"/>
<path id="XMLID_108_" class="st1" d="M1154.8,178.3c3.3,7,6.1,12.2,8.1,17.7c1.6,4.3,1.5,8.7-3,11.8c-3.9,2.7-7.7,1.7-10.9-0.7
	c-4-2.9-3.8-7.3-2.3-11.4C1148.8,190.4,1151.5,185.2,1154.8,178.3z"/>
<path id="XMLID_105_" class="st1" d="M205.8,549.4c3.4,7,6.1,12.4,8.6,18c2.1,4.5,0.4,8.1-3.3,11c-3.4,2.6-6.8,2.5-10.2,0.1
	c-3.5-2.5-5.6-5.9-3.8-10.2C199.5,562.3,202.5,556.5,205.8,549.4z"/>
<path id="XMLID_104_" class="st1" d="M219,289.6c3.5,7.3,6.2,12.8,8.7,18.4c2.1,4.6-0.1,8.1-3.5,11c-3.3,2.8-7.1,2.4-10.3,0.2
	c-3.6-2.4-4.9-6.4-3.4-10.4C212.6,302.9,215.5,297.2,219,289.6z"/>
<g id="XMLID_10_">
	<path id="XMLID_51_" class="st6" d="M608.1,552.6c0,0-53.6,18.6-22.4,20c31.2,1.4,50.9-11.4,50.9-11.4L608.1,552.6z"/>
	<path id="XMLID_56_" class="st6" d="M714.4,552.6c0,0,53.6,18.6,22.4,20c-31.2,1.4-50.9-11.4-50.9-11.4L714.4,552.6z"/>
	<g id="XMLID_248_">
		<path id="XMLID_247_" class="st6" d="M576.3,442.4c0,0-16.8-10.3-15.6,4.7c1.1,15-6.3,22.1-4.1,26.9c2.3,4.8,14.3,6.6,14.3,6.6
			L576.3,442.4z"/>
		<path id="XMLID_246_" class="st6" d="M742.9,442.4c0,0,16.8-10.3,15.6,4.7c-1.1,15,6.3,22.1,4.1,26.9c-2.3,4.8-14.3,6.6-14.3,6.6
			L742.9,442.4z"/>
		<ellipse id="XMLID_245_" class="st7" cx="660" cy="476.6" rx="91.9" ry="92.1"/>
		<g id="XMLID_138_">
			<path id="XMLID_244_" class="st6" d="M660,406.6L660,406.6c0.8,0,1.5-0.6,1.5-1.5v-12.2c0-0.8-0.6-1.5-1.5-1.5l0,0
				c-0.8,0-1.5,0.6-1.5,1.5v12.2C658.6,406,659.3,406.6,660,406.6z"/>
			<path id="XMLID_243_" class="st6" d="M729.2,476.5L729.2,476.5c0,0.9,0.6,1.5,1.4,1.5h12.2c0.8,0,1.4-0.6,1.4-1.4v-0.1
				c0-0.8-0.6-1.4-1.4-1.4h-12.2C729.8,475.1,729.2,475.7,729.2,476.5z"/>
			<path id="XMLID_242_" class="st6" d="M660,546.6L660,546.6c-0.8,0-1.5,0.6-1.5,1.5v12.2c0,0.8,0.6,1.5,1.5,1.5l0,0
				c0.8,0,1.5-0.6,1.5-1.5V548C661.4,547.3,660.8,546.6,660,546.6z"/>
			<path id="XMLID_241_" class="st6" d="M589.6,476.6L589.6,476.6c0-0.9-0.6-1.5-1.4-1.5H576c-0.8,0-1.4,0.6-1.4,1.4v0.1
				c0,0.8,0.6,1.4,1.4,1.4h12.2C589,478,589.6,477.4,589.6,476.6z"/>
			<g id="XMLID_188_">
				<g id="XMLID_220_">
					<path id="XMLID_240_" class="st6" d="M670.1,404.5L670.1,404.5c0.5,0.1,1-0.3,1-0.8l1.1-9.1c0.1-0.5-0.3-0.9-0.8-1l0,0
						c-0.5-0.1-1,0.3-1,0.8l-1.1,9.1C669.2,404,669.5,404.4,670.1,404.5z"/>
					<path id="XMLID_239_" class="st6" d="M677.2,406.1L677.2,406.1c0.5,0.1,1-0.2,1.1-0.7l2-8.9c0.1-0.5-0.2-1-0.7-1.1l0,0
						c-0.5-0.1-1,0.2-1.1,0.7l-2,8.9C676.4,405.4,676.7,406,677.2,406.1z"/>
					<path id="XMLID_238_" class="st6" d="M684.1,408.4L684.1,408.4c0.5,0.2,1-0.1,1.2-0.6l2.9-8.6c0.2-0.5-0.1-1-0.6-1.2l0,0
						c-0.5-0.2-1,0.1-1.2,0.6l-2.9,8.6C683.4,407.7,683.6,408.2,684.1,408.4z"/>
					<path id="XMLID_237_" class="st6" d="M690.8,411.4L690.8,411.4c0.4,0.2,1,0,1.2-0.4l3.7-8.3c0.2-0.4,0-1-0.4-1.2l0,0
						c-0.4-0.2-1,0-1.2,0.4l-3.7,8.3C690.2,410.6,690.3,411.1,690.8,411.4z"/>
					<path id="XMLID_236_" class="st6" d="M697.2,415L697.2,415c0.4,0.3,1,0.1,1.3-0.3l4.6-7.9c0.3-0.4,0.1-1-0.3-1.3l0,0
						c-0.4-0.3-1-0.1-1.3,0.3l-4.6,7.9C696.6,414.2,696.7,414.8,697.2,415z"/>
					<path id="XMLID_235_" class="st6" d="M703.1,419.3L703.1,419.3c0.4,0.3,1,0.2,1.3-0.2l5.4-7.3c0.3-0.4,0.2-1-0.2-1.3l0,0
						c-0.4-0.3-1-0.2-1.3,0.2L703,418C702.6,418.4,702.7,419,703.1,419.3z"/>
					<path id="XMLID_234_" class="st6" d="M708.6,424.1L708.6,424.1c0.3,0.3,1,0.3,1.3-0.1l6-6.8c0.3-0.3,0.3-0.9-0.1-1.3l0,0
						c-0.3-0.3-1-0.3-1.3,0.1l-6,6.8C708.1,423.2,708.2,423.8,708.6,424.1z"/>
					<path id="XMLID_233_" class="st6" d="M713.6,429.5L713.6,429.5c0.3,0.3,1,0.4,1.3,0.1l6.7-6.1c0.3-0.3,0.4-1,0.1-1.3l0,0
						c-0.3-0.3-1-0.4-1.3-0.1l-6.7,6.1C713.2,428.5,713.2,429.1,713.6,429.5z"/>
					<path id="XMLID_232_" class="st6" d="M718,435.3L718,435.3c0.3,0.4,0.9,0.5,1.3,0.2l7.3-5.4c0.4-0.3,0.5-0.9,0.2-1.3l0,0
						c-0.3-0.4-0.9-0.5-1.3-0.2l-7.3,5.4C717.7,434.4,717.6,435,718,435.3z"/>
					<path id="XMLID_231_" class="st6" d="M721.8,441.6L721.8,441.6c0.3,0.4,0.9,0.6,1.3,0.3l7.8-4.7c0.4-0.3,0.6-0.9,0.3-1.3l0,0
						c-0.3-0.4-0.9-0.6-1.3-0.3l-7.8,4.7C721.6,440.6,721.5,441.2,721.8,441.6z"/>
					<path id="XMLID_230_" class="st6" d="M724.9,448.3L724.9,448.3c0.3,0.4,0.8,0.7,1.2,0.4l8.2-3.9c0.4-0.3,0.7-0.8,0.4-1.2l0,0
						c-0.3-0.4-0.8-0.7-1.2-0.4l-8.2,3.9C724.9,447.2,724.7,447.8,724.9,448.3z"/>
					<path id="XMLID_229_" class="st6" d="M727.4,455.2L727.4,455.2c0.2,0.5,0.7,0.8,1.2,0.6l8.5-3c0.5-0.2,0.8-0.7,0.6-1.2l0,0
						c-0.2-0.5-0.7-0.8-1.2-0.6l-8.5,3C727.5,454.2,727.2,454.7,727.4,455.2z"/>
					<path id="XMLID_228_" class="st6" d="M729.1,462.3L729.1,462.3c0.1,0.5,0.6,0.8,1.1,0.7l8.8-2.2c0.5-0.1,0.8-0.6,0.7-1.1l0,0
						c-0.1-0.5-0.6-0.8-1.1-0.7l-8.8,2.2C729.3,461.2,729,461.8,729.1,462.3z"/>
					<path id="XMLID_221_" class="st6" d="M730.2,469.5L730.2,469.5c0.1,0.5,0.5,0.9,1,0.8l9-1.2c0.5-0.1,0.9-0.5,0.8-1l0,0
						c-0.1-0.5-0.5-0.9-1-0.8l-9,1.2C730.4,468.6,730.1,469,730.2,469.5z"/>
				</g>
				<g id="XMLID_189_">
					<path id="XMLID_219_" class="st6" d="M650,404.5L650,404.5c-0.5,0.1-1-0.3-1-0.8l-1.1-9.1c-0.1-0.5,0.3-0.9,0.8-1l0,0
						c0.5-0.1,0.9,0.3,1,0.8l1.1,9.1C650.9,404,650.5,404.4,650,404.5z"/>
					<path id="XMLID_218_" class="st6" d="M642.8,406.1L642.8,406.1c-0.5,0.1-1-0.2-1.1-0.7l-2-8.9c-0.1-0.5,0.2-1,0.7-1.1l0,0
						c0.5-0.1,1,0.2,1.1,0.7l2,8.9C643.7,405.4,643.4,406,642.8,406.1z"/>
					<path id="XMLID_217_" class="st6" d="M635.9,408.4L635.9,408.4c-0.5,0.2-1-0.1-1.2-0.6l-2.9-8.6c-0.2-0.5,0.1-1,0.6-1.2l0,0
						c0.5-0.2,1,0.1,1.2,0.6l2.9,8.6C636.7,407.7,636.5,408.2,635.9,408.4z"/>
					<path id="XMLID_213_" class="st6" d="M629.3,411.4L629.3,411.4c-0.4,0.2-1,0-1.2-0.4l-3.7-8.3c-0.2-0.4,0-1,0.4-1.2l0,0
						c0.4-0.2,1,0,1.2,0.4l3.7,8.3C629.9,410.6,629.7,411.1,629.3,411.4z"/>
					<path id="XMLID_199_" class="st6" d="M622.9,415L622.9,415c-0.4,0.3-1,0.1-1.3-0.3l-4.6-7.9c-0.3-0.4-0.1-1,0.3-1.3l0,0
						c0.4-0.3,1-0.1,1.3,0.3l4.6,7.9C623.5,414.2,623.3,414.8,622.9,415z"/>
					<path id="XMLID_198_" class="st6" d="M616.9,419.3L616.9,419.3c-0.4,0.3-1,0.2-1.3-0.2l-5.4-7.3c-0.3-0.4-0.2-1,0.2-1.3l0,0
						c0.4-0.3,1-0.2,1.3,0.2l5.4,7.3C617.5,418.4,617.4,419,616.9,419.3z"/>
					<path id="XMLID_197_" class="st6" d="M611.5,424.1L611.5,424.1c-0.3,0.3-1,0.3-1.3-0.1l-6-6.8c-0.3-0.3-0.3-0.9,0.1-1.3l0,0
						c0.3-0.3,1-0.3,1.3,0.1l6,6.8C611.9,423.2,611.8,423.8,611.5,424.1z"/>
					<path id="XMLID_196_" class="st6" d="M606.5,429.5L606.5,429.5c-0.3,0.3-1,0.4-1.3,0.1l-6.7-6.1c-0.3-0.3-0.4-1-0.1-1.3l0,0
						c0.3-0.3,1-0.4,1.3-0.1l6.7,6.1C606.8,428.5,606.8,429.1,606.5,429.5z"/>
					<path id="XMLID_195_" class="st6" d="M602.1,435.3L602.1,435.3c-0.3,0.4-0.9,0.5-1.3,0.2l-7.3-5.4c-0.4-0.3-0.5-0.9-0.2-1.3
						l0,0c0.3-0.4,0.9-0.5,1.3-0.2l7.3,5.4C602.3,434.4,602.4,435,602.1,435.3z"/>
					<path id="XMLID_194_" class="st6" d="M598.3,441.6L598.3,441.6c-0.3,0.4-0.9,0.6-1.3,0.3l-7.8-4.7c-0.4-0.3-0.6-0.9-0.3-1.3
						l0,0c0.3-0.4,0.9-0.6,1.3-0.3l7.8,4.7C598.5,440.6,598.5,441.2,598.3,441.6z"/>
					<path id="XMLID_193_" class="st6" d="M595.2,448.3L595.2,448.3c-0.3,0.4-0.8,0.7-1.2,0.4l-8.2-3.9c-0.4-0.3-0.7-0.8-0.4-1.2
						l0,0c0.3-0.4,0.8-0.7,1.2-0.4l8.2,3.9C595.2,447.2,595.3,447.8,595.2,448.3z"/>
					<path id="XMLID_192_" class="st6" d="M592.7,455.2L592.7,455.2c-0.2,0.5-0.7,0.8-1.2,0.6l-8.5-3c-0.5-0.2-0.8-0.7-0.6-1.2l0,0
						c0.2-0.5,0.7-0.8,1.2-0.6l8.5,3C592.6,454.2,592.8,454.7,592.7,455.2z"/>
					<path id="XMLID_191_" class="st6" d="M590.9,462.3L590.9,462.3c-0.1,0.5-0.6,0.8-1.1,0.7l-8.8-2.2c-0.5-0.1-0.8-0.6-0.7-1.1
						l0,0c0.1-0.5,0.6-0.8,1.1-0.7l8.8,2.2C590.8,461.2,591.1,461.8,590.9,462.3z"/>
					<path id="XMLID_190_" class="st6" d="M589.9,469.5L589.9,469.5c-0.1,0.5-0.5,0.9-1,0.8l-9-1.2c-0.5-0.1-0.9-0.5-0.8-1l0,0
						c0.1-0.5,0.5-0.9,1-0.8l9,1.2C589.6,468.6,590,469,589.9,469.5z"/>
				</g>
			</g>
			<g id="XMLID_139_">
				<g id="XMLID_170_">
					<path id="XMLID_187_" class="st6" d="M670.1,548.6L670.1,548.6c0.5-0.1,1,0.3,1,0.8l1.1,9.1c0.1,0.5-0.3,1-0.8,1l0,0
						c-0.5,0.1-1-0.3-1-0.8l-1.1-9.1C669.2,549.2,669.5,548.7,670.1,548.6z"/>
					<path id="XMLID_186_" class="st6" d="M677.2,547.1L677.2,547.1c0.5-0.1,1,0.2,1.1,0.7l2,8.9c0.1,0.5-0.2,1-0.7,1.1l0,0
						c-0.5,0.1-1-0.2-1.1-0.7l-2-8.9C676.4,547.7,676.7,547.2,677.2,547.1z"/>
					<path id="XMLID_185_" class="st6" d="M684.1,544.8L684.1,544.8c0.5-0.2,1,0.1,1.2,0.6l2.9,8.6c0.2,0.5-0.1,1-0.6,1.2l0,0
						c-0.5,0.2-1-0.1-1.2-0.6l-2.9-8.6C683.4,545.4,683.6,544.9,684.1,544.8z"/>
					<path id="XMLID_184_" class="st6" d="M690.8,541.8L690.8,541.8c0.4-0.2,1,0,1.2,0.4l3.7,8.3c0.2,0.4,0,1-0.4,1.2l0,0
						c-0.4,0.2-1,0-1.2-0.4l-3.7-8.3C690.2,542.5,690.3,542,690.8,541.8z"/>
					<path id="XMLID_183_" class="st6" d="M697.2,538.1L697.2,538.1c0.4-0.3,1-0.1,1.3,0.3l4.6,7.9c0.3,0.4,0.1,1-0.3,1.3l0,0
						c-0.4,0.3-1,0.1-1.3-0.3l-4.6-7.9C696.6,539,696.7,538.4,697.2,538.1z"/>
					<path id="XMLID_182_" class="st6" d="M703.1,533.9L703.1,533.9c0.4-0.3,1-0.2,1.3,0.2l5.4,7.3c0.3,0.4,0.2,1-0.2,1.3l0,0
						c-0.4,0.3-1,0.2-1.3-0.2l-5.4-7.3C702.6,534.7,702.7,534.1,703.1,533.9z"/>
					<path id="XMLID_181_" class="st6" d="M708.6,529L708.6,529c0.3-0.3,1-0.3,1.3,0.1l6,6.8c0.3,0.3,0.3,0.9-0.1,1.3l0,0
						c-0.3,0.3-1,0.3-1.3-0.1l-6-6.8C708.1,529.9,708.2,529.4,708.6,529z"/>
					<path id="XMLID_180_" class="st6" d="M713.6,523.6L713.6,523.6c0.3-0.3,1-0.4,1.3-0.1l6.7,6.1c0.3,0.3,0.4,1,0.1,1.3l0,0
						c-0.3,0.3-1,0.4-1.3,0.1l-6.7-6.1C713.2,524.6,713.2,524,713.6,523.6z"/>
					<path id="XMLID_179_" class="st6" d="M718,517.8L718,517.8c0.3-0.4,0.9-0.5,1.3-0.2l7.3,5.4c0.4,0.3,0.5,0.9,0.2,1.3l0,0
						c-0.3,0.4-0.9,0.5-1.3,0.2l-7.3-5.4C717.7,518.8,717.6,518.2,718,517.8z"/>
					<path id="XMLID_175_" class="st6" d="M721.8,511.5L721.8,511.5c0.3-0.4,0.9-0.6,1.3-0.3l7.8,4.7c0.4,0.3,0.6,0.9,0.3,1.3l0,0
						c-0.3,0.4-0.9,0.6-1.3,0.3l-7.8-4.7C721.6,512.5,721.5,511.9,721.8,511.5z"/>
					<path id="XMLID_174_" class="st6" d="M724.9,504.9L724.9,504.9c0.3-0.4,0.8-0.7,1.2-0.4l8.2,3.9c0.4,0.3,0.7,0.8,0.4,1.2l0,0
						c-0.3,0.4-0.8,0.7-1.2,0.4l-8.2-3.9C724.9,505.9,724.7,505.4,724.9,504.9z"/>
					<path id="XMLID_173_" class="st6" d="M727.4,497.9L727.4,497.9c0.2-0.5,0.7-0.8,1.2-0.6l8.5,3c0.5,0.2,0.8,0.7,0.6,1.2l0,0
						c-0.2,0.5-0.7,0.8-1.2,0.6l-8.5-3C727.5,499,727.2,498.5,727.4,497.9z"/>
					<path id="XMLID_172_" class="st6" d="M729.1,490.9L729.1,490.9c0.1-0.5,0.6-0.8,1.1-0.7l8.8,2.2c0.5,0.1,0.8,0.6,0.7,1.1l0,0
						c-0.1,0.5-0.6,0.8-1.1,0.7l-8.8-2.2C729.3,491.9,729,491.4,729.1,490.9z"/>
					<path id="XMLID_171_" class="st6" d="M730.2,483.6L730.2,483.6c0.1-0.5,0.5-0.9,1-0.8l9,1.2c0.5,0.1,0.9,0.5,0.8,1l0,0
						c-0.1,0.5-0.5,0.9-1,0.8l-9-1.2C730.4,484.6,730.1,484.1,730.2,483.6z"/>
				</g>
				<g id="XMLID_152_">
					<path id="XMLID_169_" class="st6" d="M650,548.6L650,548.6c-0.5-0.1-1,0.3-1,0.8l-1.1,9.1c-0.1,0.5,0.3,1,0.8,1l0,0
						c0.5,0.1,0.9-0.3,1-0.8l1.1-9.1C650.9,549.2,650.5,548.7,650,548.6z"/>
					<path id="XMLID_168_" class="st6" d="M642.8,547.1L642.8,547.1c-0.5-0.1-1,0.2-1.1,0.7l-2,8.9c-0.1,0.5,0.2,1,0.7,1.1l0,0
						c0.5,0.1,1-0.2,1.1-0.7l2-8.9C643.7,547.7,643.4,547.2,642.8,547.1z"/>
					<path id="XMLID_167_" class="st6" d="M635.9,544.8L635.9,544.8c-0.5-0.2-1,0.1-1.2,0.6l-2.9,8.6c-0.2,0.5,0.1,1,0.6,1.2l0,0
						c0.5,0.2,1-0.1,1.2-0.6l2.9-8.6C636.7,545.4,636.5,544.9,635.9,544.8z"/>
					<path id="XMLID_166_" class="st6" d="M629.3,541.8L629.3,541.8c-0.4-0.2-1,0-1.2,0.4l-3.7,8.3c-0.2,0.4,0,1,0.4,1.2l0,0
						c0.4,0.2,1,0,1.2-0.4l3.7-8.3C629.9,542.5,629.7,542,629.3,541.8z"/>
					<path id="XMLID_165_" class="st6" d="M622.9,538.1L622.9,538.1c-0.4-0.3-1-0.1-1.3,0.3l-4.6,7.9c-0.3,0.4-0.1,1,0.3,1.3l0,0
						c0.4,0.3,1,0.1,1.3-0.3l4.6-7.9C623.5,539,623.3,538.4,622.9,538.1z"/>
					<path id="XMLID_164_" class="st6" d="M616.9,533.9L616.9,533.9c-0.4-0.3-1-0.2-1.3,0.2l-5.4,7.3c-0.3,0.4-0.2,1,0.2,1.3l0,0
						c0.4,0.3,1,0.2,1.3-0.2l5.4-7.3C617.5,534.7,617.4,534.1,616.9,533.9z"/>
					<path id="XMLID_163_" class="st6" d="M611.5,529L611.5,529c-0.3-0.3-1-0.3-1.3,0.1l-6,6.8c-0.3,0.3-0.3,0.9,0.1,1.3l0,0
						c0.3,0.3,1,0.3,1.3-0.1l6-6.8C611.9,529.9,611.8,529.4,611.5,529z"/>
					<path id="XMLID_162_" class="st6" d="M606.5,523.6L606.5,523.6c-0.3-0.3-1-0.4-1.3-0.1l-6.7,6.1c-0.3,0.3-0.4,1-0.1,1.3l0,0
						c0.3,0.3,1,0.4,1.3,0.1l6.7-6.1C606.8,524.6,606.8,524,606.5,523.6z"/>
					<path id="XMLID_161_" class="st6" d="M602.1,517.8L602.1,517.8c-0.3-0.4-0.9-0.5-1.3-0.2l-7.3,5.4c-0.4,0.3-0.5,0.9-0.2,1.3
						l0,0c0.3,0.4,0.9,0.5,1.3,0.2l7.3-5.4C602.3,518.8,602.4,518.2,602.1,517.8z"/>
					<path id="XMLID_160_" class="st6" d="M598.3,511.5L598.3,511.5c-0.3-0.4-0.9-0.6-1.3-0.3l-7.8,4.7c-0.4,0.3-0.6,0.9-0.3,1.3
						l0,0c0.3,0.4,0.9,0.6,1.3,0.3l7.8-4.7C598.5,512.5,598.5,511.9,598.3,511.5z"/>
					<path id="XMLID_159_" class="st6" d="M595.2,504.9L595.2,504.9c-0.3-0.4-0.8-0.7-1.2-0.4l-8.2,3.9c-0.4,0.3-0.7,0.8-0.4,1.2
						l0,0c0.3,0.4,0.8,0.7,1.2,0.4l8.2-3.9C595.2,505.9,595.3,505.4,595.2,504.9z"/>
					<path id="XMLID_158_" class="st6" d="M592.7,497.9L592.7,497.9c-0.2-0.5-0.7-0.8-1.2-0.6l-8.5,3c-0.5,0.2-0.8,0.7-0.6,1.2l0,0
						c0.2,0.5,0.7,0.8,1.2,0.6l8.5-3C592.6,499,592.8,498.5,592.7,497.9z"/>
					<path id="XMLID_155_" class="st6" d="M590.9,490.9L590.9,490.9c-0.1-0.5-0.6-0.8-1.1-0.7l-8.8,2.2c-0.5,0.1-0.8,0.6-0.7,1.1
						l0,0c0.1,0.5,0.6,0.8,1.1,0.7l8.8-2.2C590.8,491.9,591.1,491.4,590.9,490.9z"/>
					<path id="XMLID_154_" class="st6" d="M589.9,483.6L589.9,483.6c-0.1-0.5-0.5-0.9-1-0.8l-9,1.2c-0.5,0.1-0.9,0.5-0.8,1l0,0
						c0.1,0.5,0.5,0.9,1,0.8l9-1.2C589.6,484.6,590,484.1,589.9,483.6z"/>
				</g>
			</g>
		</g>
		<ellipse id="XMLID_137_" class="st8" cx="662" cy="520.7" rx="12.5" ry="6.3"/>
		
		
		<path id="XMLID_135_" height="42" width="42"  d="M711.4,468.8c-3.7,1.9-5.2,6.6-3.3,10.3c1.3,2.4,0.3,5.4-2.2,6.7c-2.4,1.3-5.4,0.3-6.7-2.2
			c-1.9-3.7-6.6-5.2-10.3-3.3s-5.2,6.6-3.3,10.3c1.3,2.4,0.3,5.4-2.2,6.7c-2.4,1.3-5.4,0.3-6.7-2.2l0,0c-1.9-3.7-6.6-5.2-10.3-3.3
			c-3.7,1.9-5.7,0.7-3.8,4.5c0,0,0,0,5-2.2c2.5-1.1,5.4-0.3,6.7,2.2l0,0c1.9,3.7,6.6,5.2,10.3,3.3c3.7-1.9,5.2-6.6,3.3-10.3
			c-1.3-2.4-0.3-5.4,2.2-6.7c2.4-1.3,5.4-0.3,6.7,2.2c1.9,3.7,6.6,5.2,10.3,3.3c3.7-1.9,5.2-6.6,3.3-10.3c-1.3-2.4-0.3-5.4,2.2-6.7
			c5.5-2.8,9.1-6.6,9.1-6.6C715.7,467.5,715.1,466.8,711.4,468.8z">
			<animateTransform attributeName="transform"
				attributeType="XML"
				type="rotate"
				from="0 50 50"
				to="360 50 50"
				dur="10s"
				repeatcount="indefinite"/>



		</path>
		<path id="XMLID_132_" d="M610.2,465.6c4.1,2.2,5.7,7.3,3.6,11.3c-1.4,2.7-0.3,6,2.3,7.4s6,0.3,7.4-2.3c2.2-4.1,7.3-5.7,11.3-3.6
			c4.1,2.2,5.7,7.3,3.6,11.3c-1.4,2.7-0.3,6,2.3,7.4s6,0.3,7.4-2.3l0,0c2.2-4.1,7.3-5.7,11.3-3.6c4.1,2.2,6.3,0.8,4.1,4.9
			c0,0,0,0-5.4-2.3c-2.8-1.2-6-0.3-7.4,2.3l0,0c-2.2,4.1-7.3,5.7-11.3,3.6c-4.1-2.2-5.7-7.3-3.6-11.3c1.4-2.7,0.3-6-2.3-7.4
			s-6-0.3-7.4,2.3c-2.2,4.1-7.3,5.7-11.3,3.6c-4.1-2.2-5.7-7.3-3.6-11.3c1.4-2.7,0.3-6-2.3-7.4c-6-3.1-14.5-10.9-14.5-10.9
			C601.5,460.2,606.1,463.4,610.2,465.6z">

			<animateTransform attributeName="transform"
				attributeType="XML"
				type="rotate"
				from="0 50 50"
				to="360 50 50"
				dur="10s"
				repeatcount="indefinite"/>

		</path>
		<g id="XMLID_109_">
			<ellipse id="XMLID_129_" class="st9" cx="638.8" cy="458.4" rx="9.4" ry="10.4"/>
			<circle id="XMLID_126_" cx="636.2" cy="461.1" r="6.2"/>
			<path id="XMLID_118_" class="st10" d="M638.8,454.4c4.1,0,7.7,3,9,7.2c0.3-1,0.4-2.1,0.4-3.2c0-5.7-4.2-10.4-9.4-10.4
				s-9.4,4.7-9.4,10.4c0,1.1,0.2,2.2,0.4,3.2C631.1,457.4,634.6,454.4,638.8,454.4z"/>
			<path id="XMLID_117_" d="M644.7,434.1c-5.7-2.9-12.7-0.7-15.6,4.9l0,0c-1.9,3.7-4.7,6.5-14.1,5.4c0.6,0.5,1.3,0.9,2,1.3
				c5.7,2.9,12.7,0.7,15.6-4.9l0,0c1.9-3.7,6.4-4.9,10.2-3.3c7.5,3.2,6.7,12.1,6.7,12.1C652.6,444.1,650.4,437.1,644.7,434.1z"/>
		</g>
		<g id="XMLID_111_">
			<ellipse id="XMLID_101_" class="st9" cx="683.9" cy="458.4" rx="9.4" ry="10.4"/>
			<circle id="XMLID_79_" cx="681.1" cy="461.1" r="6.2"/>
			<path id="XMLID_71_" class="st10" d="M683.9,454.4c4.1,0,7.7,3,9,7.2c0.3-1,0.4-2.1,0.4-3.2c0-5.7-4.2-10.4-9.4-10.4
				s-9.4,4.7-9.4,10.4c0,1.1,0.2,2.2,0.4,3.2C676.2,457.4,679.7,454.4,683.9,454.4z"/>
			<path id="XMLID_70_" d="M679,441.5c5.7-2.9,12.7-0.7,15.6,4.9l0,0c1.9,3.7,4.7,6.5,14.1,5.4c-0.6,0.5-1.3,1-2,1.3
				c-5.7,2.9-12.7,0.7-15.6-4.9l0,0c-1.9-3.7-6.4-4.9-10.2-3.3c-7.5,3.2-6.7,12.1-6.7,12.1C671.1,451.4,673.3,444.4,679,441.5z"/>
		</g>
		<circle id="XMLID_64_" class="st11" cx="662.8" cy="495.9" r="7.8"/>
		<g id="XMLID_36_">
			
				<ellipse id="XMLID_63_" transform="matrix(-0.1892 -0.9819 0.9819 -0.1892 392.5693 1100.8621)" class="st12" cx="650.8" cy="388.4" rx="10.3" ry="66.7"/>
			<path id="XMLID_46_" class="st12" d="M672.4,386.7l-42.1,8.1c-9.2,1.8-18.2-4.3-19.9-13.5l-2.3-12.1c-1.8-9.2,4.3-18.2,13.5-19.9
				l42.1-8.1c9.2-1.8,18.2,4.3,19.9,13.5l2.3,12.1C687.7,376,681.5,385,672.4,386.7z"/>
			<path id="XMLID_128_" class="st11" d="M648.4,381.7c-13.9,2.7-26,4.5-36.6,5.4c4.8-5.9,3.5-5.4,10.2-6.6l53.9-10.8
				c6.6-1.3,6.5,0.6,10.7,3C676.7,375.7,662.3,379,648.4,381.7z"/>
		</g>
	</g>
</g>
</svg>
